<?xml version="1.0" encoding="UTF-8"?>
<svg xmlns="http://www.w3.org/2000/svg" xmlns:xlink="http://www.w3.org/1999/xlink" viewBox="0 0 96 96" width="96px" height="96px">
<g id="surface812820">
<path style=" stroke:none;fill-rule:nonzero;fill:rgb(90.588236%,29.803923%,23.529412%);fill-opacity:1;" d="M 40 8 L 36 12 L 16 12 L 16 20 L 20 20 L 20 80 C 20 82.089844 20.765625 84.21875 22.273438 85.726562 C 23.78125 87.234375 25.910156 88 28 88 L 68 88 C 70.089844 88 72.21875 87.234375 73.726562 85.726562 C 75.234375 84.21875 76 82.089844 76 80 L 76 20 L 80 20 L 80 12 L 60 12 L 56 8 Z M 28 20 L 68 20 L 68 80 L 28 80 Z M 36 28 L 36 72 L 44 72 L 44 28 Z M 52 28 L 52 72 L 60 72 L 60 28 Z M 52 28 "/>
</g>
</svg>
